<svg xmlns="http://www.w3.org/2000/svg" version="1.1" xmlns:xlink="http://www.w3.org/1999/xlink" xmlns:svgjs="http://svgjs.dev/svgjs" width="1000" height="1125" viewBox="0 0 1000 1125"><g transform="matrix(1,0,0,1,1.7053025658242404e-13,0)"><svg viewBox="0 0 320 360" data-background-color="#ffffff" preserveAspectRatio="xMidYMid meet" height="1125" width="1000" xmlns="http://www.w3.org/2000/svg" xmlns:xlink="http://www.w3.org/1999/xlink"><g id="tight-bounds" transform="matrix(1,0,0,1,0,0)"><svg viewBox="0 0 320 360" height="360" width="320"><g><svg></svg></g><g><svg viewBox="0 0 320 360" height="360" width="320"><g><path xmlns="http://www.w3.org/2000/svg" d="M20.961 227.22l3.726 4.658-1.863-6.056c-0.466-2.795-3.726 0.466-1.863 1.398M25.153 224.425c1.397 2.329 2.795 4.658 2.795 6.987 0 3.261 2.795 4.658 5.123 5.589-3.261-3.726-5.124-13.974-7.918-12.576M204.017 26.929c7.918 0 15.371-0.932 23.756 0.931 20.495 5.124 37.729 15.371 49.374 29.811l32.606 52.169c1.397 13.042 4.192 27.482 3.726 43.319 3.261 0 2.795-4.658 6.521-5.59-3.726 9.316-5.59 20.961-6.521 34.469-2.329-7.453 0-18.632 0.466-24.687-3.261 5.124-5.124 1.397-5.124-0.932 0.466-3.726-1.397-3.261-2.795-4.658-5.124-4.658-8.384-9.782-12.11-17.7 2.329-6.055 2.795-14.905-4.658-19.563-2.329-1.397-5.124-3.726-6.521-7.453-1.863-5.124-5.124-11.179-4.193-19.097 0.466-2.329-6.987 5.124-11.179 1.863-18.166-12.576-36.332-27.016-58.224-39.127-11.645 0-20.029-4.192-24.221-9.316-3.726-4.658-0.932-10.713 4.658-11.179 3.261 0 6.987-0.932 9.782 0.932 0.466-1.863 2.329-4.192 4.657-4.192M157.904 16.215l0.932 0.466c4.658 0.932 6.987 7.453 12.11 5.124 0 3.261 0.466 6.521-0.466 8.85-1.397 3.726-5.59 3.726-8.85 3.726-31.208-1.863-49.374 11.179-68.471 22.358-5.124 3.261-10.713 5.59-14.906 9.782-20.029 18.632-41.921 35.866-47.045 70.335l-4.192 38.195c-0.466 4.192-5.124 8.384-4.192 13.508l3.26 22.824c-3.261-3.261-5.124 0.932-4.192 2.795 0.466 1.397 2.329 6.055 5.124 1.863 3.726 6.987 7.453 20.495 12.576 26.55 15.837 18.632 36.332 35.4 53.101 52.169 4.192-0.932 7.453-0.932 8.384-3.727 1.397 2.795-1.397 5.59-3.726 6.056 7.453 4.658 15.837 8.85 27.016 9.781 14.44 0.932 27.948 3.261 40.524 6.522 6.521-1.863 13.042-2.795 20.029-3.261 2.329 0 3.726-3.726 6.521-4.658l0.466-4.658c2.795 4.192 2.329-1.397 0.466-4.192 3.261 2.795 4.192 5.124 5.589 6.987 0-1.397 3.726-6.521 3.727-0.466l0.931-6.055c1.397-0.932 1.863 5.124 3.261 0.931 1.397-4.192 4.192-0.932 6.987-2.329-0.932 1.863-0.466 5.59 2.794 3.261l3.727-3.261c2.329 5.59 6.055 3.261 7.918 2.329 20.495-13.042 40.99-28.413 60.553-43.784l-0.466 6.055 2.329-7.453c2.329 2.329 4.192 0.466 5.124-0.931 2.795-4.658 6.521-9.316 12.577-13.508-7.453 20.029-16.303 35.866-27.482 48.908l-4.658 5.59c0 3.261-0.932 7.453-4.658 7.918-1.863 0.466-5.59-0.932-8.384 1.863-1.397 1.863 3.261 5.59-0.466 2.795-3.261-2.329-6.521 0-10.248 0.932-2.795 0.932 1.863 3.726 2.795 5.589 0.932 1.863 1.863 3.726 1.398 6.056l-5.124-5.59c-6.055 3.261-9.782 9.316-14.906 13.974-2.329 1.863-1.397 5.124-1.397 7.918-3.261 0-6.987-0.932-8.85 0.932-1.397 1.863-0.932 4.658-0.932 7.453-4.658-0.466-5.124-7.453-9.315-6.056-4.192 0.932-8.85 1.397-12.577 3.727 2.795 5.59-4.658 2.329-3.726 3.26-6.987-4.192-13.042-7.453-20.495-4.658-15.837-5.124-35.4-2.795-49.84-0.931 0-2.329 0.466-4.658-0.466-5.124-0.932 2.329-3.726 1.397-3.26 1.397-8.85-6.055-17.7-9.782-27.016-14.905-8.384 0.932-16.303-3.261-18.632-5.59-6.521-6.055-13.974-2.795-20.029-4.192-13.042-3.261-17.7-16.769-19.098-26.084-0.932-4.658-4.658-6.521-6.055-6.056-6.055-19.563-15.371-37.263-22.824-55.429-1.863-4.658-1.397-9.316-1.397-14.44 2.329 0.932 4.658 0.466 4.192-2.794-2.329-15.371-7.918-27.016-13.974-38.195 3.261-15.837 3.726-34.469 11.179-48.443 6.521-12.576 18.632-19.098 27.016-29.811 2.795-3.726 2.795-8.85 5.59-12.11 9.316-9.316 18.632-19.098 28.879-27.482 4.658-3.726 10.247 0 17.234-1.397 2.329-8.384 11.645-15.837 20.495-13.508 3.726 0.932 11.179-8.85 13.508-9.782 3.726-1.397 1.863 3.726 1.863 6.987 8.85-6.987 20.961-10.713 32.14-14.906" fill="#0080ff" fill-rule="nonzero" stroke="none" stroke-width="1" stroke-linecap="butt" stroke-linejoin="miter" stroke-miterlimit="10" stroke-dasharray="" stroke-dashoffset="0" font-family="none" font-weight="none" font-size="none" text-anchor="none" style="mix-blend-mode: normal" data-fill-palette-color="tertiary"></path></g><g transform="matrix(1,0,0,1,64,117.34959286851266)"><svg viewBox="0 0 192 125.30081426297468" height="125.30081426297468" width="192"><g><svg viewBox="0 0 192 125.30081426297468" height="125.30081426297468" width="192"><g><svg viewBox="0 0 192 125.30081426297468" height="125.30081426297468" width="192"><g transform="matrix(1,0,0,1,0,74.4632089949523)"><svg viewBox="0 0 192 50.83760526802238" height="50.83760526802238" width="192"><g id="textblocktransform"><svg viewBox="0 0 192 50.83760526802238" height="50.83760526802238" width="192" id="textblock"><g><svg viewBox="0 0 192 28.82074583033191" height="28.82074583033191" width="192"><g transform="matrix(1,0,0,1,0,0)"><svg width="192" viewBox="1.350000023841858 -38.20000076293945 257.7846984863281 38.70000076293945" height="28.82074583033191" data-palette-color="#0080ff"><path d="M1.85 0Q1.35 0 1.35-0.6L1.35-0.6Q1.35-1.85 2.65-3.3L2.65-3.3Q3.7-4.5 4.15-5.53 4.6-6.55 5.15-9.35L5.15-9.35 8.6-30.4 8.35-30.4Q6.3-30.4 5.13-29.95 3.95-29.5 3.15-28.95 2.35-28.4 2.15-28.4L2.15-28.4Q1.8-28.4 1.8-28.9L1.8-28.9Q1.8-29.15 1.9-29.65L1.9-29.65Q2.45-31.9 5-33.3 7.55-34.7 11.45-34.7L11.45-34.7Q13.2-34.7 15.7-34.45L15.7-34.45Q19.7-34.2 20.5-34.2L20.5-34.2Q22.45-34.2 23.6-34.43 24.75-34.65 25.58-34.93 26.4-35.2 26.7-35.2L26.7-35.2Q26.95-35.2 27.08-35.1 27.2-35 27.2-34.7L27.2-34.7Q27.2-33.9 26.43-32.77 25.65-31.65 24.15-30.8 22.65-29.95 20.5-29.95L20.5-29.95Q20.05-29.95 18.45-30.05L18.45-30.05Q16.05-30.25 13.95-30.25L13.95-30.25 12.3-19.95 21.95-19.95Q22.15-19.95 22.3-19.8 22.45-19.65 22.45-19.45L22.45-19.45Q22.45-19.05 21.83-18.07 21.2-17.1 20.3-16.3 19.4-15.5 18.5-15.5L18.5-15.5Q18.25-15.5 16.95-15.7L16.95-15.7Q14.95-16.1 13.35-16.1L13.35-16.1 11.6-16.1 10.05-6.8Q9.9-6.2 9.73-5.7 9.55-5.2 9.5-4.95L9.5-4.95 9.5-4.9Q12.2-4.3 14.4-4.3L14.4-4.3Q18.65-4.3 21.15-5.75L21.15-5.75Q21.9-6.25 22.3-6.25L22.3-6.25Q22.75-6.25 22.75-5.65L22.75-5.65Q22.75-4.35 21.55-3.03 20.35-1.7 18.3-0.85 16.25 0 13.75 0L13.75 0Q12.55 0 11.03-0.2 9.5-0.4 9.15-0.45L9.15-0.45Q6.45-0.85 5.5-0.85L5.5-0.85Q4.15-0.85 3.15-0.43 2.15 0 1.85 0L1.85 0ZM30.6 0.5Q28.15 0.5 26.72-1.33 25.3-3.15 25.3-6.3L25.3-6.3Q25.3-10.1 27.27-14.23 29.25-18.35 32.42-21.08 35.6-23.8 38.95-23.8L38.95-23.8Q40.5-23.8 41.47-23.18 42.45-22.55 42.45-21.5L42.45-21.5Q42.45-20.75 41.6-19.2L41.6-19.2Q41.2-18.5 40.75-18.5L40.75-18.5Q40.4-18.5 40.15-18.8L40.15-18.8Q38.8-20.15 37.1-20.15L37.1-20.15Q35.25-20.15 33.77-18.75 32.3-17.35 31.47-14.93 30.65-12.5 30.65-9.5L30.65-9.5Q30.65-6.8 31.37-5.58 32.1-4.35 33.7-4.35L33.7-4.35Q36.35-4.35 38.4-8.05L38.4-8.05Q38.65-8.6 38.82-8.78 39-8.95 39.25-8.95L39.25-8.95Q39.75-8.95 39.75-8.05L39.75-8.05Q39.75-6.35 38.4-4.33 37.05-2.3 34.92-0.9 32.8 0.5 30.6 0.5L30.6 0.5ZM47.95 0.5Q45.5 0.5 44.07-1.33 42.65-3.15 42.65-6.3L42.65-6.3Q42.65-10.1 44.62-14.23 46.59-18.35 49.77-21.08 52.95-23.8 56.3-23.8L56.3-23.8Q57.84-23.8 58.82-23.18 59.8-22.55 59.8-21.5L59.8-21.5Q59.8-20.75 58.95-19.2L58.95-19.2Q58.55-18.5 58.09-18.5L58.09-18.5Q57.75-18.5 57.5-18.8L57.5-18.8Q56.15-20.15 54.45-20.15L54.45-20.15Q52.59-20.15 51.12-18.75 49.65-17.35 48.82-14.93 48-12.5 48-9.5L48-9.5Q48-6.8 48.72-5.58 49.45-4.35 51.05-4.35L51.05-4.35Q53.7-4.35 55.75-8.05L55.75-8.05Q56-8.6 56.17-8.78 56.34-8.95 56.59-8.95L56.59-8.95Q57.09-8.95 57.09-8.05L57.09-8.05Q57.09-6.35 55.75-4.33 54.4-2.3 52.27-0.9 50.15 0.5 47.95 0.5L47.95 0.5ZM65.04 0.5Q62.69 0.5 61.34-1.23 59.99-2.95 59.99-6.2L59.99-6.2Q59.99-10.25 62.02-14.35 64.04-18.45 67.12-21.13 70.19-23.8 73.09-23.8L73.09-23.8Q75.44-23.8 76.74-22.05 78.04-20.3 78.04-17.15L78.04-17.15Q78.04-13.3 76.12-9.15 74.19-5 71.17-2.25 68.14 0.5 65.04 0.5L65.04 0.5ZM67.74-3.85Q69.14-3.85 70.29-5.33 71.44-6.8 72.09-9.3 72.74-11.8 72.74-14.75L72.74-14.75Q72.74-17.25 72.19-18.35 71.64-19.45 70.49-19.45L70.49-19.45Q69.14-19.45 67.97-18.07 66.79-16.7 66.07-14.3 65.34-11.9 65.34-8.95L65.34-8.95Q65.34-3.85 67.74-3.85L67.74-3.85ZM82.49 0.5Q81.69 0.5 81.69 0L81.69 0Q81.69-0.25 81.94-1L81.94-1Q82.49-2.6 82.64-3.6L82.64-3.6Q83.04-5.5 83.77-9.45 84.49-13.4 84.84-16.25L84.84-16.25Q85.09-18 85.09-18.4L85.09-18.4Q85.09-19.05 84.69-19.05L84.69-19.05Q83.64-19.05 81.99-16L81.99-16Q81.79-15.6 81.54-15.28 81.29-14.95 81.04-14.95L81.04-14.95Q80.54-14.95 80.54-15.8L80.54-15.8Q80.54-17.15 81.72-19.07 82.89-21 84.62-22.4 86.34-23.8 87.94-23.8L87.94-23.8Q88.94-23.8 89.54-23.1 90.14-22.4 90.14-20.9L90.14-20.9Q90.14-18.95 89.74-16.45L89.74-16.45 89.79-16.45Q91.64-19.75 93.79-21.78 95.94-23.8 97.89-23.8L97.89-23.8Q100.44-23.8 100.44-20.3L100.44-20.3Q100.44-19.4 100.19-17.8L100.19-17.8 100.14-17.5 100.19-17.5Q102.14-20.45 104.09-22.13 106.04-23.8 107.84-23.8L107.84-23.8Q110.39-23.8 110.39-20.2L110.39-20.2Q110.39-18.7 109.94-16.45L109.94-16.45Q109.09-12.15 108.94-11.45L108.94-11.45Q108.64-9.85 108.24-7.73 107.84-5.6 107.84-5.2L107.84-5.2Q107.84-4.2 108.49-4.2L108.49-4.2Q109.24-4.2 109.89-5.2 110.54-6.2 111.29-8.1L111.29-8.1Q111.59-8.8 111.99-8.8L111.99-8.8Q112.24-8.8 112.37-8.45 112.49-8.1 112.44-7.55L112.44-7.55Q112.24-5.75 111.12-3.88 109.99-2 108.39-0.75 106.79 0.5 105.19 0.5L105.19 0.5Q102.69 0.5 102.69-2.8L102.69-2.8Q102.69-4.85 103.89-10.75L103.89-10.75Q104.29-12.7 104.62-14.63 104.94-16.55 104.99-17.75L104.99-17.75 104.99-18.05Q104.99-18.95 104.44-18.95L104.44-18.95Q103.74-18.95 102.67-17.63 101.59-16.3 100.52-14.15 99.44-12 98.74-9.75L98.74-9.75 97.19-1.6Q97.04-0.85 95.44-0.18 93.84 0.5 92.69 0.5L92.69 0.5Q92.24 0.5 92.14 0.33 92.04 0.15 92.14-0.3L92.14-0.3Q92.19-0.5 93.62-7.85 95.04-15.2 95.19-17.75L95.19-17.75 95.19-18.15Q95.19-18.95 94.69-18.95L94.69-18.95Q93.84-18.95 92.54-17.2 91.24-15.45 90.09-12.8 88.94-10.15 88.44-7.65L88.44-7.65 87.64-3.6Q87.34-2.1 85.72-0.8 84.09 0.5 82.49 0.5L82.49 0.5ZM120.49 0.5Q117.89 0.5 116.41-1.28 114.94-3.05 114.94-6.25L114.94-6.25Q114.94-10 116.86-14.13 118.79-18.25 121.76-21.03 124.74-23.8 127.74-23.8L127.74-23.8Q129.39-23.8 130.36-22.85 131.34-21.9 131.34-20.1L131.34-20.1Q131.34-17.85 129.89-15.48 128.44-13.1 125.91-11.08 123.39-9.05 120.24-7.8L120.24-7.8Q120.39-4.35 123.29-4.35L123.29-4.35Q124.89-4.35 126.31-5.35 127.74-6.35 128.84-8.05L128.84-8.05Q129.09-8.5 129.29-8.72 129.49-8.95 129.69-8.95L129.69-8.95Q129.99-8.95 130.09-8.75 130.19-8.55 130.19-8.05L130.19-8.05Q130.19-6.45 128.76-4.4 127.34-2.35 125.09-0.93 122.84 0.5 120.49 0.5L120.49 0.5ZM121.49-11.9Q122.59-11.9 123.74-12.68 124.89-13.45 125.64-14.7 126.39-15.95 126.39-17.4L126.39-17.4Q126.39-19.2 124.94-19.2L124.94-19.2Q123.39-19.2 122.14-17.25 120.89-15.3 120.54-12.05L120.54-12.05Q120.84-11.9 121.49-11.9L121.49-11.9ZM135.23 0.5Q134.38 0.5 134.38-0.1L134.38-0.1Q134.38-0.35 134.76-1.23 135.13-2.1 135.48-3.95L135.48-3.95 136.33-8.75Q137.69-16.45 137.73-17.75L137.73-17.75 137.73-18.2Q137.73-19.05 137.28-19.05L137.28-19.05Q136.33-19.05 134.69-16L134.69-16Q134.48-15.6 134.23-15.28 133.98-14.95 133.73-14.95L133.73-14.95Q133.23-14.95 133.23-15.8L133.23-15.8Q133.23-17.1 134.41-19.03 135.58-20.95 137.31-22.38 139.03-23.8 140.63-23.8L140.63-23.8Q142.78-23.8 142.78-20.95L142.78-20.95Q142.78-20.35 142.38-16.75L142.38-16.75 142.44-16.75Q144.53-20.45 146.41-22.13 148.28-23.8 150.19-23.8L150.19-23.8Q151.48-23.8 152.28-23.05 153.08-22.3 153.08-20.9L153.08-20.9Q153.08-19.55 152.46-18.25 151.83-16.95 150.94-16.13 150.03-15.3 149.38-15.3L149.38-15.3Q148.98-15.3 149.13-15.8L149.13-15.8Q149.28-16.5 149.28-17.1L149.28-17.1Q149.28-18.4 148.13-18.4L148.13-18.4Q146.23-18.4 144.36-15.8 142.48-13.2 141.44-8.3L141.44-8.3Q140.69-5.2 140.44-3.45L140.44-3.45Q140.19-2.05 138.46-0.78 136.73 0.5 135.23 0.5L135.23 0.5ZM157.43 0.5Q154.98 0.5 153.56-1.33 152.13-3.15 152.13-6.3L152.13-6.3Q152.13-10.1 154.11-14.23 156.08-18.35 159.26-21.08 162.43-23.8 165.78-23.8L165.78-23.8Q167.33-23.8 168.31-23.18 169.28-22.55 169.28-21.5L169.28-21.5Q169.28-20.75 168.43-19.2L168.43-19.2Q168.03-18.5 167.58-18.5L167.58-18.5Q167.23-18.5 166.98-18.8L166.98-18.8Q165.63-20.15 163.93-20.15L163.93-20.15Q162.08-20.15 160.61-18.75 159.13-17.35 158.31-14.93 157.48-12.5 157.48-9.5L157.48-9.5Q157.48-6.8 158.21-5.58 158.93-4.35 160.53-4.35L160.53-4.35Q163.18-4.35 165.23-8.05L165.23-8.05Q165.48-8.6 165.66-8.78 165.83-8.95 166.08-8.95L166.08-8.95Q166.58-8.95 166.58-8.05L166.58-8.05Q166.58-6.35 165.23-4.33 163.88-2.3 161.76-0.9 159.63 0.5 157.43 0.5L157.43 0.5ZM175.33 0.5Q172.73 0.5 171.25-1.28 169.78-3.05 169.78-6.25L169.78-6.25Q169.78-10 171.7-14.13 173.63-18.25 176.6-21.03 179.58-23.8 182.58-23.8L182.58-23.8Q184.23-23.8 185.2-22.85 186.18-21.9 186.18-20.1L186.18-20.1Q186.18-17.85 184.73-15.48 183.28-13.1 180.75-11.08 178.23-9.05 175.08-7.8L175.08-7.8Q175.23-4.35 178.13-4.35L178.13-4.35Q179.73-4.35 181.15-5.35 182.58-6.35 183.68-8.05L183.68-8.05Q183.93-8.5 184.13-8.72 184.33-8.95 184.53-8.95L184.53-8.95Q184.83-8.95 184.93-8.75 185.03-8.55 185.03-8.05L185.03-8.05Q185.03-6.45 183.6-4.4 182.18-2.35 179.93-0.93 177.68 0.5 175.33 0.5L175.33 0.5ZM176.33-11.9Q177.43-11.9 178.58-12.68 179.73-13.45 180.48-14.7 181.23-15.95 181.23-17.4L181.23-17.4Q181.23-19.2 179.78-19.2L179.78-19.2Q178.23-19.2 176.98-17.25 175.73-15.3 175.38-12.05L175.38-12.05Q175.68-11.9 176.33-11.9L176.33-11.9ZM199.22 0Q198.97 0 198.87-0.13 198.77-0.25 198.77-0.6L198.77-0.6Q198.77-2.3 200.05-3.73 201.32-5.15 202.77-5.15L202.77-5.15 203.87-5.15Q204.97-6.75 205.47-10.3L205.47-10.3 208.22-26.85Q208.62-29.1 209.72-31 210.82-32.9 212.82-34.7L212.82-34.7Q214.62-36.4 216.57-37.3 218.52-38.2 220.87-38.2L220.87-38.2Q222.02-38.2 222.92-38.02 223.82-37.85 224.87-37.5L224.87-37.5Q226.07-37.1 226.07-36.85L226.07-36.85Q226.07-36.45 225.32-35.77 224.57-35.1 223.57-34.6 222.57-34.1 221.97-34.1L221.97-34.1Q221.72-34.1 220.77-34.4 219.82-34.7 218.77-34.7L218.77-34.7Q217.17-34.7 216.32-34.05L216.32-34.05Q215.32-33.3 214.72-31.88 214.12-30.45 213.67-27.7L213.67-27.7 210.62-9.05Q210.17-6.35 208.87-4.9L208.87-4.9 208.87-4.85Q210.07-4.65 212-4.5 213.92-4.35 215.47-4.35L215.47-4.35Q218.37-4.35 219.9-4.8 221.42-5.25 222.92-6.3L222.92-6.3Q223.42-6.8 223.97-6.8L223.97-6.8Q224.37-6.8 224.37-6.1L224.37-6.1Q224.37-4.75 222.97-3.33 221.57-1.9 219.17-0.95 216.77 0 213.87 0L213.87 0Q212.42 0 208.62-0.4L208.62-0.4Q205.12-0.85 203.17-0.85L203.17-0.85Q201.87-0.85 201.17-0.68 200.47-0.5 199.97-0.25 199.47 0 199.22 0L199.22 0ZM229.17 0.5Q228.37 0.5 228.37 0L228.37 0Q228.37-0.25 228.62-1L228.62-1Q229.17-2.6 229.32-3.6L229.32-3.6Q229.72-5.5 230.45-9.45 231.17-13.4 231.52-16.25L231.52-16.25Q231.77-18 231.77-18.4L231.77-18.4Q231.77-19.05 231.37-19.05L231.37-19.05Q230.32-19.05 228.67-16L228.67-16Q228.47-15.6 228.22-15.28 227.97-14.95 227.72-14.95L227.72-14.95Q227.22-14.95 227.22-15.8L227.22-15.8Q227.22-17.15 228.4-19.07 229.57-21 231.3-22.4 233.02-23.8 234.62-23.8L234.62-23.8Q235.62-23.8 236.22-23.1 236.82-22.4 236.82-20.9L236.82-20.9Q236.82-18.95 236.42-16.45L236.42-16.45 236.47-16.45Q238.32-19.75 240.47-21.78 242.62-23.8 244.57-23.8L244.57-23.8Q247.12-23.8 247.12-20.3L247.12-20.3Q247.12-19.4 246.87-17.8L246.87-17.8 246.82-17.5 246.87-17.5Q248.82-20.45 250.77-22.13 252.72-23.8 254.52-23.8L254.52-23.8Q257.07-23.8 257.07-20.2L257.07-20.2Q257.07-18.7 256.62-16.45L256.62-16.45Q255.77-12.15 255.62-11.45L255.62-11.45Q255.32-9.85 254.92-7.73 254.52-5.6 254.52-5.2L254.52-5.2Q254.52-4.2 255.17-4.2L255.17-4.2Q255.92-4.2 256.57-5.2 257.22-6.2 257.97-8.1L257.97-8.1Q258.27-8.8 258.67-8.8L258.67-8.8Q258.92-8.8 259.05-8.45 259.17-8.1 259.12-7.55L259.12-7.55Q258.92-5.75 257.8-3.88 256.67-2 255.07-0.75 253.47 0.5 251.87 0.5L251.87 0.5Q249.37 0.5 249.37-2.8L249.37-2.8Q249.37-4.85 250.57-10.75L250.57-10.75Q250.97-12.7 251.3-14.63 251.62-16.55 251.67-17.75L251.67-17.75 251.67-18.05Q251.67-18.95 251.12-18.95L251.12-18.95Q250.42-18.95 249.35-17.63 248.27-16.3 247.2-14.15 246.12-12 245.42-9.75L245.42-9.75 243.87-1.6Q243.72-0.85 242.12-0.18 240.52 0.5 239.37 0.5L239.37 0.5Q238.92 0.5 238.82 0.33 238.72 0.15 238.82-0.3L238.82-0.3Q238.87-0.5 240.3-7.85 241.72-15.2 241.87-17.75L241.87-17.75 241.87-18.15Q241.87-18.95 241.37-18.95L241.37-18.95Q240.52-18.95 239.22-17.2 237.92-15.45 236.77-12.8 235.62-10.15 235.12-7.65L235.12-7.65 234.32-3.6Q234.02-2.1 232.4-0.8 230.77 0.5 229.17 0.5L229.17 0.5Z" opacity="1" transform="matrix(1,0,0,1,0,0)" fill="#0080ff" class="wordmark-text-0" data-fill-palette-color="primary" id="text-0"></path></svg></g></svg></g><g transform="matrix(1,0,0,1,0,33.026384344877265)"><svg viewBox="0 0 192 17.811220923145118" height="17.811220923145118" width="192"><g transform="matrix(1,0,0,1,0,0)"><svg width="192" viewBox="5.420000076293945 -40.5 575.5700073242188 53.38999938964844" height="17.811220923145118" data-palette-color="#0080ff"><path d="M5.42 0L5.42-38.16 13.16-38.16 13.16-6.79 35.35-6.79 35.35 0 5.42 0ZM50.23-14.5L50.23-14.5Q50.23-17.43 51.43-20.1 52.63-22.78 54.87-24.83 57.12-26.88 60.38-28.1 63.64-29.32 67.79-29.32L67.79-29.32Q71.91-29.32 75.22-28.09 78.53-26.86 80.84-24.71 83.14-22.56 84.38-19.65 85.61-16.75 85.61-13.43L85.61-13.43Q85.61-13.01 85.6-12.54 85.59-12.06 85.54-11.67L85.54-11.67 58.29-11.67Q58.75-10.38 59.79-9.3 60.83-8.23 62.39-7.45 63.96-6.67 66.01-6.24 68.06-5.81 70.55-5.81L70.55-5.81Q73.04-5.81 75.5-6.34 77.97-6.86 80.21-7.67L80.21-7.67 82.66-2.15Q81.24-1.49 79.79-0.99 78.34-0.49 76.76-0.16 75.19 0.17 73.46 0.34 71.74 0.51 69.84 0.51L69.84 0.51Q64.98 0.51 61.32-0.66 57.66-1.83 55.19-3.86 52.72-5.88 51.48-8.62 50.23-11.35 50.23-14.5ZM58.29-17.31L77.94-17.31Q77.55-18.51 76.74-19.54 75.92-20.58 74.7-21.35 73.48-22.12 71.87-22.56 70.25-23 68.33-23L68.33-23Q66.27-23 64.59-22.53 62.91-22.07 61.64-21.29 60.37-20.51 59.52-19.48 58.68-18.46 58.29-17.31L58.29-17.31ZM107.38 0L107.38-23.39 100.42-23.39 100.42-28.81 107.38-28.81 107.38-37.77 114.6-37.77 114.6-28.81 121.56-28.81 121.56-23.39 114.6-23.39 114.6 0 107.38 0ZM140.45-23.36L140.45-40.5 146.72-40.5 146.72-23.36 140.45-23.36ZM166.27-3.37L169.39-8.84Q172.32-7.08 175.84-6.25 179.36-5.42 183.04-5.42L183.04-5.42Q185.53-5.42 187.19-5.76 188.85-6.1 189.85-6.64 190.85-7.18 191.27-7.86 191.68-8.54 191.68-9.25L191.68-9.25Q191.68-10.28 190.79-11.01 189.9-11.74 187.85-11.74L187.85-11.74Q186.9-11.74 185.8-11.62 184.7-11.5 183.49-11.36 182.29-11.23 180.98-11.11 179.67-10.99 178.33-10.99L178.33-10.99Q175.4-10.99 173.34-11.62 171.27-12.26 169.98-13.35 168.69-14.45 168.1-15.95 167.52-17.46 167.52-19.19L167.52-19.19Q167.52-21.39 168.54-23.24 169.57-25.1 171.47-26.45 173.37-27.81 176.07-28.56 178.77-29.32 182.09-29.32L182.09-29.32Q183.82-29.32 185.72-29.11 187.61-28.91 189.44-28.56 191.27-28.22 192.95-27.77 194.64-27.32 195.93-26.81L195.93-26.81 193.66-21.19Q190.9-22.22 188.16-22.81 185.41-23.41 182.51-23.41L182.51-23.41Q180.48-23.41 179.08-23.11 177.67-22.8 176.79-22.3 175.91-21.8 175.51-21.15 175.11-20.51 175.11-19.8L175.11-19.8Q175.11-19.29 175.32-18.87 175.52-18.46 176-18.15 176.48-17.85 177.24-17.69 178.01-17.53 179.14-17.53L179.14-17.53Q180.16-17.53 181.31-17.65 182.46-17.77 183.7-17.91 184.95-18.04 186.28-18.16 187.61-18.29 189-18.29L189-18.29Q191.59-18.29 193.53-17.68 195.47-17.07 196.74-15.97 198.01-14.87 198.64-13.38 199.28-11.89 199.28-10.13L199.28-10.13Q199.28-7.86 198.23-5.91 197.18-3.96 195.1-2.53 193.03-1.1 189.94-0.29 186.85 0.51 182.8 0.51L182.8 0.51Q180.31 0.51 177.99 0.21 175.67-0.1 173.57-0.62 171.47-1.15 169.63-1.86 167.78-2.56 166.27-3.37L166.27-3.37ZM242.59 0L242.59-38.16 262.98-38.16Q266.71-38.16 269.49-37.37 272.26-36.57 274.09-35.18 275.92-33.79 276.81-31.87 277.7-29.96 277.7-27.73L277.7-27.73Q277.7-24.1 275.41-21.36L275.41-21.36Q278.04-19.8 279.34-17.31 280.63-14.82 280.63-11.65L280.63-11.65Q280.63-8.98 279.74-6.84 278.85-4.69 277.03-3.16 275.21-1.64 272.44-0.82 269.67 0 265.91 0L265.91 0 242.59 0ZM250.33-23.51L265.96-23.51Q266.96-23.51 267.91-23.44L267.91-23.44Q269.55-25 269.55-27L269.55-27Q269.55-29.08 267.92-30.21 266.3-31.35 263.17-31.35L263.17-31.35 250.33-31.35 250.33-23.51ZM250.33-6.74L266.1-6.74Q269.23-6.74 270.85-8.08 272.48-9.42 272.48-11.87L272.48-11.87Q272.48-14.31 270.85-15.67 269.23-17.04 266.1-17.04L266.1-17.04 250.33-17.04 250.33-6.74ZM297.22-13.75L297.22-28.83 304.42-28.83 304.42-14.77Q304.42-12.77 304.86-11.12 305.3-9.47 306.37-8.3 307.43-7.13 309.2-6.48 310.97-5.83 313.6-5.83L313.6-5.83Q314.85-5.83 316.13-6.1 317.41-6.37 318.58-6.85 319.76-7.32 320.77-7.98 321.78-8.64 322.52-9.42L322.52-9.42 322.52-28.83 329.74-28.83 329.74 0 322.52 0 322.52-2.47Q319.85-0.88 317.17-0.2 314.48 0.49 312.07 0.49L312.07 0.49Q308.11 0.49 305.29-0.46 302.47-1.42 300.68-3.23 298.88-5.05 298.05-7.7 297.22-10.35 297.22-13.75L297.22-13.75ZM349.34 9.72L352.02 3.61Q353.15 4.35 354.46 4.91 355.78 5.47 357.21 5.83 358.64 6.2 360.13 6.38 361.62 6.57 363.08 6.57L363.08 6.57Q368.06 6.57 370.76 4.43 373.46 2.29 373.46-1.98L373.46-1.98 373.46-2.95Q372.51-2.29 371.32-1.75 370.14-1.2 368.78-0.81 367.43-0.42 365.93-0.21 364.42 0 362.89 0L362.89 0Q359.59 0 356.99-0.96 354.39-1.93 352.6-3.8 350.8-5.66 349.85-8.4 348.9-11.13 348.9-14.65L348.9-14.65 348.9-28.81 356.1-28.81 356.1-16.65Q356.1-11.43 358.09-8.95 360.08-6.47 364.38-6.47L364.38-6.47Q367.4-6.47 369.73-7.53 372.07-8.59 373.46-10.25L373.46-10.25 373.46-28.81 380.68-28.81 380.68-3.3Q380.68 0.83 379.51 3.87 378.34 6.91 376.11 8.91 373.87 10.91 370.63 11.9 367.38 12.89 363.25 12.89L363.25 12.89Q359.22 12.89 355.73 12.04 352.24 11.18 349.34 9.72L349.34 9.72ZM426.81 0L426.81-38.16 434.55-38.16 458.33-25.71 458.33-38.16 466.07-38.16 466.07 0 458.33 0 458.33-17.5 434.55-29.88 434.55 0 426.81 0ZM483.88-14.4L483.88-14.4Q483.88-17.5 485.14-20.21 486.39-22.92 488.72-24.95 491.06-26.98 494.36-28.15 497.67-29.32 501.8-29.32L501.8-29.32Q505.92-29.32 509.23-28.15 512.54-26.98 514.87-24.95 517.2-22.92 518.46-20.21 519.72-17.5 519.72-14.4L519.72-14.4Q519.72-11.3 518.46-8.59 517.2-5.88 514.87-3.86 512.54-1.83 509.23-0.66 505.92 0.51 501.8 0.51L501.8 0.51Q497.67 0.51 494.36-0.66 491.06-1.83 488.72-3.86 486.39-5.88 485.14-8.59 483.88-11.3 483.88-14.4ZM491.47-14.4L491.47-14.4Q491.47-12.67 492.17-11.12 492.86-9.57 494.19-8.39 495.52-7.2 497.44-6.51 499.36-5.81 501.8-5.81L501.8-5.81Q504.24-5.81 506.16-6.51 508.07-7.2 509.4-8.39 510.73-9.57 511.43-11.12 512.13-12.67 512.13-14.4L512.13-14.4Q512.13-16.14 511.43-17.7 510.73-19.26 509.4-20.45 508.07-21.63 506.16-22.33 504.24-23.02 501.8-23.02L501.8-23.02Q499.36-23.02 497.44-22.33 495.52-21.63 494.19-20.45 492.86-19.26 492.17-17.7 491.47-16.14 491.47-14.4ZM546.34 0L532.7-28.83 541.07-28.83 548.57-11.5 550.76-6.64 553.45-12.94 546.32-28.83 553.35-28.83 556.84-20.29 560.33-28.83 567.36-28.83 560.21-12.94 562.92-6.64 565.12-11.5 572.61-28.83 580.99-28.83 567.34 0 559.48 0 556.84-5.57 554.21 0 546.34 0Z" opacity="1" transform="matrix(1,0,0,1,0,0)" fill="#0080ff" class="slogan-text-1" data-fill-palette-color="secondary" id="text-1"></path></svg></g></svg></g></svg></g></svg></g><g transform="matrix(1,0,0,1,60.87121475979653,0)"><svg viewBox="0 0 70.25757048040694 70.25757048040694" height="70.25757048040694" width="70.25757048040694"><g><svg xmlns="http://www.w3.org/2000/svg" xmlns:xlink="http://www.w3.org/1999/xlink" version="1.1" x="0" y="0" viewBox="20 20 60 60" enable-background="new 0 0 100 100" xml:space="preserve" height="70.25757048040694" width="70.25757048040694" class="icon-icon-0" data-fill-palette-color="accent" id="icon-0"><g fill="#010c80" data-fill-palette-color="accent"><g fill="#010c80" data-fill-palette-color="accent"><g fill="#010c80" data-fill-palette-color="accent"><path d="M50 80c-16.5 0-30-13.5-30-30s13.5-30 30-30 30 13.5 30 30S66.5 80 50 80zM50 22c-15.4 0-28 12.6-28 28s12.6 28 28 28 28-12.6 28-28S65.4 22 50 22z" fill="#010c80" data-fill-palette-color="accent"></path></g></g><g fill="#010c80" data-fill-palette-color="accent"><g fill="#010c80" data-fill-palette-color="accent"><path d="M50 44.8c-0.6 0-1-0.4-1-1v-16c0-0.6 0.4-1 1-1s1 0.4 1 1v16C51 44.3 50.6 44.8 50 44.8z" fill="#010c80" data-fill-palette-color="accent"></path></g></g><g fill="#010c80" data-fill-palette-color="accent"><g fill="#010c80" data-fill-palette-color="accent"><path d="M49.7 46.9C49.7 46.9 49.7 46.9 49.7 46.9c-0.3 0-0.6-0.1-0.7-0.3l-6.9-7.5c-0.4-0.4-0.3-1 0.1-1.4 0.4-0.4 1-0.3 1.4 0.1l6.2 6.7 6.7-6.7c0.4-0.4 1-0.4 1.4 0s0.4 1 0 1.4l-7.5 7.5C50.2 46.8 50 46.9 49.7 46.9z" fill="#010c80" data-fill-palette-color="accent"></path></g></g><g fill="#010c80" data-fill-palette-color="accent"><g fill="#010c80" data-fill-palette-color="accent"><path d="M62 69.8H38c-0.5 0-0.9-0.3-1-0.8l-4-16c-0.1-0.3 0-0.6 0.2-0.9s0.5-0.4 0.8-0.4h32c0.3 0 0.6 0.1 0.8 0.4S67 52.7 67 53l-4 16C62.9 69.4 62.5 69.8 62 69.8zM38.8 67.8h22.4l3.5-14H35.3L38.8 67.8z" fill="#010c80" data-fill-palette-color="accent"></path></g></g><g fill="#010c80" data-fill-palette-color="accent"><g fill="#010c80" data-fill-palette-color="accent"><g fill="#010c80" data-fill-palette-color="accent"><path d="M41.2 69.8c-0.6 0-1-0.4-1-1v-16c0-0.6 0.4-1 1-1s1 0.4 1 1v16C42.2 69.3 41.8 69.8 41.2 69.8z" fill="#010c80" data-fill-palette-color="accent"></path></g></g><g fill="#010c80" data-fill-palette-color="accent"><g fill="#010c80" data-fill-palette-color="accent"><path d="M45.6 69.8c-0.6 0-1-0.4-1-1v-16c0-0.6 0.4-1 1-1s1 0.4 1 1v16C46.6 69.3 46.2 69.8 45.6 69.8z" fill="#010c80" data-fill-palette-color="accent"></path></g></g><g fill="#010c80" data-fill-palette-color="accent"><g fill="#010c80" data-fill-palette-color="accent"><path d="M50 69.8c-0.6 0-1-0.4-1-1v-16c0-0.6 0.4-1 1-1s1 0.4 1 1v16C51 69.3 50.6 69.8 50 69.8z" fill="#010c80" data-fill-palette-color="accent"></path></g></g><g fill="#010c80" data-fill-palette-color="accent"><g fill="#010c80" data-fill-palette-color="accent"><path d="M54.4 69.8c-0.6 0-1-0.4-1-1v-16c0-0.6 0.4-1 1-1s1 0.4 1 1v16C55.4 69.3 55 69.8 54.4 69.8z" fill="#010c80" data-fill-palette-color="accent"></path></g></g><g fill="#010c80" data-fill-palette-color="accent"><g fill="#010c80" data-fill-palette-color="accent"><path d="M58.8 69.8c-0.6 0-1-0.4-1-1v-16c0-0.6 0.4-1 1-1s1 0.4 1 1v16C59.8 69.3 59.4 69.8 58.8 69.8z" fill="#010c80" data-fill-palette-color="accent"></path></g></g></g><g fill="#010c80" data-fill-palette-color="accent"><g fill="#010c80" data-fill-palette-color="accent"><g fill="#010c80" data-fill-palette-color="accent"><path d="M68.6 55.1c-1.8 0-3.3-1.5-3.3-3.3s1.5-3.3 3.3-3.3 3.3 1.5 3.3 3.3S70.4 55.1 68.6 55.1zM68.6 50.4c-0.7 0-1.3 0.6-1.3 1.3 0 0.7 0.6 1.3 1.3 1.3s1.3-0.6 1.3-1.3C69.9 51 69.3 50.4 68.6 50.4z" fill="#010c80" data-fill-palette-color="accent"></path></g></g><g fill="#010c80" data-fill-palette-color="accent"><g fill="#010c80" data-fill-palette-color="accent"><path d="M31.4 55.1c-1.8 0-3.3-1.5-3.3-3.3s1.5-3.3 3.3-3.3 3.3 1.5 3.3 3.3S33.3 55.1 31.4 55.1zM31.4 50.4c-0.7 0-1.3 0.6-1.3 1.3 0 0.7 0.6 1.3 1.3 1.3s1.3-0.6 1.3-1.3C32.8 51 32.2 50.4 31.4 50.4z" fill="#010c80" data-fill-palette-color="accent"></path></g></g></g><g fill="#010c80" data-fill-palette-color="accent"><g fill="#010c80" data-fill-palette-color="accent"><path d="M64.5 59.8h-29c-0.6 0-1-0.4-1-1s0.4-1 1-1h29c0.6 0 1 0.4 1 1S65.1 59.8 64.5 59.8z" fill="#010c80" data-fill-palette-color="accent"></path></g></g><g fill="#010c80" data-fill-palette-color="accent"><g fill="#010c80" data-fill-palette-color="accent"><path d="M63 64.8H37c-0.6 0-1-0.4-1-1s0.4-1 1-1h26c0.6 0 1 0.4 1 1S63.6 64.8 63 64.8z" fill="#010c80" data-fill-palette-color="accent"></path></g></g></g></svg></g></svg></g><g></g></svg></g></svg></g></svg></g></svg></g><defs></defs></svg><rect width="320" height="360" fill="none" stroke="none" visibility="hidden"></rect></g></svg></g></svg>